<svg height='300px' width='300px'  fill="#000000" xmlns="http://www.w3.org/2000/svg" viewBox="0 0 25 25" x="0px" y="0px"><g><path d="M18.984,4.5H15.41V4a1.5,1.5,0,0,0-1.5-1.5H11.09A1.5,1.5,0,0,0,9.59,4v.5H6.016A1.5,1.5,0,0,0,4.516,6v.89a1.5,1.5,0,0,0,.8,1.321V20a2.5,2.5,0,0,0,2.5,2.5h9.362a2.5,2.5,0,0,0,2.5-2.5V8.211a1.5,1.5,0,0,0,.8-1.321V6A1.5,1.5,0,0,0,18.984,4.5ZM10.59,4a.5.5,0,0,1,.5-.5h2.82a.5.5,0,0,1,.5.5v.5H10.59ZM5.516,6a.5.5,0,0,1,.5-.5H18.984a.5.5,0,0,1,.5.5v.89a.5.5,0,0,1-.5.5H6.016a.5.5,0,0,1-.5-.5ZM17.181,21.5H7.819a1.5,1.5,0,0,1-1.5-1.5V8.39H18.681V20A1.5,1.5,0,0,1,17.181,21.5ZM13,11v7.881a.5.5,0,0,1-1,0V11a.5.5,0,0,1,1,0Zm3.6,0v7.881a.5.5,0,0,1-1,0V11a.5.5,0,0,1,1,0ZM9.4,11v7.881a.5.5,0,0,1-1,0V11a.5.5,0,0,1,1,0Z"></path></g></svg>